# xmcd CD database file
#
# Track frame offsets:
#	150
#	21974
#	41982
#	64925
#	85099
#	137823
#	182683
#
# Disc length: 2669 seconds
#
# Revision: 0
# Processed by: cddbd v1.5.2PL0 Copyright (c) Steve Scherf et al.
# Submitted via: CDex 1.51
#
DISCID=5f0a6b07
DTITLE=D¿em - Dzien, W Ktorym Peklo Niebo
DYEAR=1985
DGENRE=Blues
TTITLE0=Czerwony Jak Cegla
TTITLE1=Dzien, W Ktorym Peklo Niebo
TTITLE2=Kim Jestem - Jestem Sobie
TTITLE3=Nieudany Skok
TTITLE4=Niewinni I Ja Cz. I i Ii
TTITLE5=Oh, Slodka
TTITLE6=Powia³ Boczny Wiatr
EXTD=YEAR: 1985
EXTT0=
EXTT1=
EXTT2=
EXTT3=
EXTT4=
EXTT5=
EXTT6=
PLAYORDER=
